<svg xmlns="http://www.w3.org/2000/svg" width="1200" height="400" viewBox="0 0 1200 400">
  <defs>
    <linearGradient id="grad1" x1="0%" y1="0%" x2="100%" y2="100%">
      <stop offset="0%" style="stop-color:#4CAF50;stop-opacity:0.8" />
      <stop offset="100%" style="stop-color:#388E3C;stop-opacity:0.9" />
    </linearGradient>
    <pattern id="pattern1" width="20" height="20" patternUnits="userSpaceOnUse">
      <circle cx="10" cy="10" r="2" fill="white" fill-opacity="0.1" />
    </pattern>
  </defs>
  <rect width="100%" height="100%" fill="url(#grad1)" />
  <rect width="100%" height="100%" fill="url(#pattern1)" />
  
  <!-- Food icons -->
  <g fill="white" fill-opacity="0.2">
    <!-- Apple -->
    <path d="M200 200 C200 150 250 150 250 200 L240 250 L210 250 L200 200 Z" />
    <path d="M225 150 L225 180" stroke="white" stroke-opacity="0.2" stroke-width="5" />
    
    <!-- Carrot -->
    <path d="M400 150 L420 250 L380 250 Z" />
    <path d="M390 140 L410 140 L400 160 Z" />
    
    <!-- Bread -->
    <rect x="550" y="180" width="100" height="60" rx="20" ry="20" />
    
    <!-- Milk -->
    <rect x="750" y="160" width="50" height="80" rx="5" ry="5" />
    <rect x="760" y="150" width="30" height="10" />
    
    <!-- Meat -->
    <path d="M900 180 C950 150 1000 180 950 220 C900 250 850 220 900 180 Z" />
  </g>
</svg>